<svg xmlns="http://www.w3.org/2000/svg" viewBox="0 0 32 40" fill="none" x="0px" y="0px"><path fill-rule="evenodd" clip-rule="evenodd" d="M16 6C10.4772 6 6 10.4772 6 16C6 21.5228 10.4772 26 16 26C21.5228 26 26 21.5228 26 16C26 10.4772 21.5228 6 16 6ZM4 16C4 9.37258 9.37258 4 16 4C22.6274 4 28 9.37258 28 16C28 22.6274 22.6274 28 16 28C9.37258 28 4 22.6274 4 16Z" fill="black"/><path fill-rule="evenodd" clip-rule="evenodd" d="M20.9859 12.7071C20.5954 12.3166 19.9623 12.3166 19.5717 12.7071L14.7939 17.485L13.1213 15.8125C12.7308 15.4219 12.0976 15.4219 11.7071 15.8125C11.3166 16.203 11.3166 16.8361 11.7071 17.2267L14.0841 19.6037C14.085 19.6046 14.0859 19.6054 14.0867 19.6063C14.1356 19.6551 14.1882 19.6978 14.2436 19.7345C14.6318 19.9907 15.1592 19.948 15.501 19.6063C15.5019 19.6054 15.5029 19.6044 15.5038 19.6034L20.9859 14.1213C21.3765 13.7308 21.3765 13.0976 20.9859 12.7071Z" fill="black"/><text x="0" y="47" fill="#000000" font-size="5px" font-weight="bold" font-family="'Helvetica Neue', Helvetica, Arial-Unicode, Arial, Sans-serif">Created by Daniela Paim</text><text x="0" y="52" fill="#000000" font-size="5px" font-weight="bold" font-family="'Helvetica Neue', Helvetica, Arial-Unicode, Arial, Sans-serif">from the Noun Project</text></svg>