<svg xmlns="http://www.w3.org/2000/svg" viewBox="0 0 32.06 40.075" x="0px" y="0px"><g data-name="Layer 2"><g data-name="Layer 1"><path d="M16,0a16,16,0,1,0,16,16A16,16,0,0,0,16,0Zm0,30A13.94,13.94,0,1,1,30,16,14,14,0,0,1,16,30Z"/><path d="M22.54,15H17.07V9.52a1,1,0,0,0-2.08,0V15H9.52a1,1,0,0,0,0,2.08H15v5.47a1,1,0,1,0,2.08,0V17.07h5.47a1,1,0,0,0,0-2.08Z"/></g></g><text x="0" y="47.06" fill="#000000" font-size="5px" font-weight="bold" font-family="'Helvetica Neue', Helvetica, Arial-Unicode, Arial, Sans-serif">Created by Ricardo Job-Reese</text><text x="0" y="52.06" fill="#000000" font-size="5px" font-weight="bold" font-family="'Helvetica Neue', Helvetica, Arial-Unicode, Arial, Sans-serif">from the Noun Project</text></svg>